/* XPM */
static char * bitcoin64_xpm[] = {
"64 64 289 2",
"  	c None",
". 	c #2896F3",
"+ 	c #2896F2",
"@ 	c #2B97F2",
"# 	c #4EA6F1",
"$ 	c #6DB4F0",
"% 	c #80BCEF",
"& 	c #90C3EF",
"* 	c #9BC8EE",
"= 	c #98C7EE",
"- 	c #8AC1EF",
"; 	c #79B9F0",
"> 	c #60AEF0",
", 	c #40A0F2",
"' 	c #2996F2",
") 	c #3C9FF2",
"! 	c #7DBBEF",
"~ 	c #B3D3EE",
"{ 	c #E3E8EC",
"] 	c #ECECEC",
"^ 	c #EBEBEC",
"/ 	c #D4E1EC",
"( 	c #9FCAEE",
"_ 	c #64B0F0",
": 	c #2E98F2",
"< 	c #59ABF1",
"[ 	c #AED1EE",
"} 	c #DBE4EC",
"| 	c #8EC3EF",
"1 	c #3FA0F2",
"2 	c #2A97F2",
"3 	c #50A7F1",
"4 	c #B7D5ED",
"5 	c #E2E7EC",
"6 	c #91C4EF",
"7 	c #369CF2",
"8 	c #319AF2",
"9 	c #95C6EF",
"0 	c #D5E2EC",
"a 	c #69B2F0",
"b 	c #49A4F1",
"c 	c #CADDED",
"d 	c #E7E9EC",
"e 	c #9EC9EE",
"f 	c #2D98F2",
"g 	c #5BACF1",
"h 	c #DFE6EC",
"i 	c #BAD6ED",
"j 	c #399DF2",
"k 	c #61AFF0",
"l 	c #E8EAEC",
"m 	c #C4DAED",
"n 	c #3B9EF2",
"o 	c #56AAF1",
"p 	c #EAEBEC",
"q 	c #E1E7EC",
"r 	c #B9D5ED",
"s 	c #B8D5ED",
"t 	c #D8E3EC",
"u 	c #C0D8ED",
"v 	c #339BF2",
"w 	c #44A2F1",
"x 	c #DCE5EC",
"y 	c #71B6F0",
"z 	c #B6D4ED",
"A 	c #CCDDEC",
"B 	c #E6E9EC",
"C 	c #E9EAEC",
"D 	c #E7F3FD",
"E 	c #E4F1FD",
"F 	c #E4F0FC",
"G 	c #EAEDEF",
"H 	c #89C0EF",
"I 	c #B9D6ED",
"J 	c #DDE5EC",
"K 	c #DAE4EC",
"L 	c #E5E9EB",
"M 	c #D2E0EC",
"N 	c #C2D9ED",
"O 	c #D1E0EC",
"P 	c #C1D9ED",
"Q 	c #C3DAED",
"R 	c #B5D4ED",
"S 	c #E4E8EC",
"T 	c #EAEBEB",
"U 	c #EBECEC",
"V 	c #E8EEF4",
"W 	c #E5F2FD",
"X 	c #F3F9FE",
"Y 	c #FFFFFF",
"Z 	c #FEFEFE",
"` 	c #F5F5F5",
" .	c #BBD6ED",
"..	c #81BCEF",
"+.	c #2C98F2",
"@.	c #51A8F1",
"#.	c #A7CDEE",
"$.	c #3099F2",
"%.	c #95C5EE",
"&.	c #DCE4EC",
"*.	c #BDD7ED",
"=.	c #58ABF1",
"-.	c #53A9F1",
";.	c #359BF2",
">.	c #C6DBED",
",.	c #EDEDED",
"'.	c #FAFAFA",
").	c #DEEEFC",
"!.	c #FCFCFC",
"~.	c #C5DAEC",
"{.	c #B2D3ED",
"].	c #B5D3ED",
"^.	c #9FC9ED",
"/.	c #87BFEF",
"(.	c #C9DCED",
"_.	c #F0F0F0",
":.	c #FDFEFE",
"<.	c #E8F3FD",
"[.	c #F2F2F2",
"}.	c #A8CEEE",
"|.	c #2F99F2",
"1.	c #BFD8ED",
"2.	c #77B8F0",
"3.	c #B3D3ED",
"4.	c #73B6EF",
"5.	c #8BC1EE",
"6.	c #5CACF1",
"7.	c #72B6F0",
"8.	c #6EB5EF",
"9.	c #C7DBEC",
"0.	c #DEE5EC",
"a.	c #40A0F1",
"b.	c #5AACF1",
"c.	c #4BA5F1",
"d.	c #F7F7F7",
"e.	c #7FBCEF",
"f.	c #82BDEF",
"g.	c #73B7F0",
"h.	c #46A3F1",
"i.	c #7BBAF0",
"j.	c #7CBBEF",
"k.	c #359CF2",
"l.	c #58ABF0",
"m.	c #6DB3EF",
"n.	c #389DF2",
"o.	c #7EBBEF",
"p.	c #F1F8FE",
"q.	c #F3F3F3",
"r.	c #A6CDEE",
"s.	c #C8DCEC",
"t.	c #96C6EF",
"u.	c #92C4EF",
"v.	c #99C7EE",
"w.	c #BCD7ED",
"x.	c #CCDEEC",
"y.	c #8DC2EF",
"z.	c #B4D3ED",
"A.	c #F9F9F9",
"B.	c #45A3F1",
"C.	c #4FA7F1",
"D.	c #3D9FF2",
"E.	c #57AAF0",
"F.	c #F8FBFE",
"G.	c #CCDEED",
"H.	c #EEEEEE",
"I.	c #E6F3FD",
"J.	c #F4F4F4",
"K.	c #F6FAFE",
"L.	c #EFEFEF",
"M.	c #C1C2C3",
"N.	c #E7E7E7",
"O.	c #EBEBEB",
"P.	c #747778",
"Q.	c #FBFBFB",
"R.	c #D5D5D5",
"S.	c #949697",
"T.	c #AFB0B1",
"U.	c #E8E8E8",
"V.	c #B3B4B5",
"W.	c #A4A6A6",
"X.	c #C8C9C9",
"Y.	c #ACADAE",
"Z.	c #E4E4E4",
"`.	c #BABBBC",
" +	c #E2F0FD",
".+	c #7D7F80",
"++	c #C4C4C5",
"@+	c #A9ABAB",
"#+	c #56595B",
"$+	c #DEDEDF",
"%+	c #ADAEAF",
"&+	c #D1D1D2",
"*+	c #9A9C9D",
"=+	c #AEAFB0",
"-+	c #ECF5FD",
";+	c #F8F8F8",
">+	c #C2C3C4",
",+	c #A3A4A5",
"'+	c #B9BABA",
")+	c #B8B9B9",
"!+	c #B2B4B4",
"~+	c #9A9D9D",
"{+	c #FDFDFD",
"]+	c #EEF6FD",
"^+	c #E3E3E3",
"/+	c #C1C2C2",
"(+	c #D6D6D7",
"_+	c #C7C7C8",
":+	c #B8BABA",
"<+	c #A2A3A4",
"[+	c #E3E3E4",
"}+	c #7C7E7F",
"|+	c #CACBCC",
"1+	c #B6B7B7",
"2+	c #CCCCCD",
"3+	c #EAEAEA",
"4+	c #575A5B",
"5+	c #A6A8A8",
"6+	c #D1D2D2",
"7+	c #AAABAC",
"8+	c #9FA0A1",
"9+	c #CFD0D0",
"0+	c #9EA0A1",
"a+	c #E2E2E2",
"b+	c #616465",
"c+	c #E3E4E4",
"d+	c #F1F1F1",
"e+	c #F9FCFE",
"f+	c #FBFDFE",
"g+	c #85BFEF",
"h+	c #84BEEF",
"i+	c #C7DBED",
"j+	c #349BF2",
"k+	c #92C4EE",
"l+	c #F7FBFE",
"m+	c #EFF7FD",
"n+	c #8EC2EE",
"o+	c #5FAEF1",
"p+	c #D6E2EC",
"q+	c #D5E1EB",
"r+	c #E5E8EC",
"s+	c #8CC2EF",
"t+	c #D7E2EC",
"u+	c #E6E9EB",
"v+	c #AFD1EE",
"w+	c #63B0F0",
"x+	c #5EADF1",
"y+	c #B2D2ED",
"z+	c #65B0F0",
"A+	c #F6F6F6",
"B+	c #A0CAEE",
"C+	c #6EB5F0",
"D+	c #E9F4FD",
"E+	c #D9E3EC",
"F+	c #CEDFEC",
"G+	c #41A1F2",
"H+	c #4CA5F1",
"I+	c #C7DCED",
"J+	c #E9EBEC",
"K+	c #CADDEC",
"L+	c #FAFCFE",
"M+	c #86BFEF",
"N+	c #5FAEF0",
"O+	c #72B6EF",
"P+	c #4CA5F0",
"Q+	c #E8F4FD",
"R+	c #5DADF1",
"S+	c #B0D1ED",
"T+	c #4DA6F1",
"U+	c #8AC1EE",
"V+	c #66B1F0",
"W+	c #76B8F0",
"X+	c #A1CBEE",
"Y+	c #6BB3F0",
"Z+	c #E5E9EC",
"`+	c #CDDEED",
" @	c #74B7F0",
".@	c #88C0EF",
"+@	c #CEDFED",
"@@	c #62AFF0",
"#@	c #CBDDED",
"$@	c #329AF2",
"%@	c #78B9F0",
"&@	c #CEDEED",
"*@	c #C5DBED",
"=@	c #9AC8EE",
"-@	c #B0D2EE",
";@	c #BED8ED",
">@	c #AACFEE",
"                                                                                                                                ",
"                                                                                                                                ",
"                                                              . .                                                               ",
"                                                  . . . . . . . . . . . . . . .                                                 ",
"                                            . . . . . . . . . . . . . . . . . . . . .                                           ",
"                                      . . . . . . . . . . . . . . . . . . . . . . . . . .                                       ",
"                                    . . . . . . . . . . . . . . . . . . . . . . . . . . . . .                                   ",
"                                . . . . . . . . . . . . . . . . . . . . . . . . . . . . . . . . .                               ",
"                            . . . . . . . . . . . . + @ # $ % & * = - ; > , . + . . . . . . . . . .                             ",
"                          . . . . . . . . . . ' ) ! ~ { ] ] ] ] ] ] ] ] ] ^ / ( _ : . . . . . . . . . .                         ",
"                        . . . . . . . . . @ < [ ^ ] ] ] ] ] ] ] ] ] ] ] ] ] ] ] ] } | 1 . . . . . . . . .                       ",
"                      . . . . . . . . 2 3 4 ] ] ] ] ] ] ] ] ] ] ] ] ] ] ] ] ] ] ] ] ] 5 6 7 . . . . . . . .                     ",
"                    . . . . . . . + 8 9 ] ] ] ] ] ] ] ] ] ] ] ] ] ] ] ] ] ] ] ] ] ] ] ] ] 0 a . . . . . . . .                   ",
"                  . . . . . . . ' b c ] ] ] ] ] ] ] ] ] ] ] ] ] ] ] ] ] ] ] ] ] ] ] ] ] ] ] d e f . . . . . .                   ",
"                  . . . . . . ' g h ] ] ] ] ] ] ] ] ] ] ] ] ] ] ] ] ] ] ] ] ] ] ] ] ] ] ] ] ] ^ i j . . . . . .                 ",
"                . . . . . . ' k l ] ] ] ] ] ] ] ] ] ] ] ] ] ] ] ] ] ] ] ] ] ] ] ] ] ] ] ] ] ] ] ] m n . . . . . .               ",
"              . . . . . . + o l ] p p p p p ^ ] ] ] q r s t ] ] ] ] ] ] p p p p ] ] ] ] ] ] ] ] ] ] u v . . . . . .             ",
"              . . . . . . w x ] ] $ . . . . y ] ^ ] z o . A ] ] ] ^ ] ] @ . + # B ^ ] ^ ^ ^ ] ] ^ ] C [ . . . . . .             ",
"            D E E E E E F G ] ] ] ] ] . H ] ] 0 I J ] } + ] ] p K i t ] 2 / L . M N O P Q R S T ~ 5 ] U V E E E E E W           ",
"          X Y Y Y Y Y Z ` ] ] ] ] ] } .  .] ..+.@.' ] #.$.] ] %.+ o . &.. h *.. =.f -.;.# . } >.. t ] ] ,.'.Y Y Y Y Y ).        ",
"          Y Y Y Y Y Y !.] ] ] ] ] ] Q . ] O . ~.{.+ ] > n p B . ].Q @ ^.. + 8 /.. (.] v @.. ] %.. ] ] ] ] _.Y Y Y Y Y :.        ",
"        <.Y Y Y Y Y Z [.] ] ] ] ] ] }.|.] 1.+ > 2.3.] . 4.5.m . 6.7.#.8.. ] ] 9.. x 0.. ) a.] b.c.] ] ] ] ,.d.Y Y Y Y Y         ",
"        :.Y Y Y Y Y !.] ] ] ] ] ] ] e.b ] 0 . f.g.h.] . < 1 S @ i.j.k.7 l.] ] q ' ; m.. o |.% n.o.] ] ] ] ] _.Y Y Y Y Y p.      ",
"        Y Y Y Y Y Z q.] ] ] ] ] ] ] #.r.] ] s.& ( ] ] z t.] ] O u.v.d u.w.] ] ] #.= >.- x.y.P f z.] ] ] ] ] ,.A.Y Y Y Y Z       ",
"      D Y Y Y Y Y Z ,.] ] ] ] ] ] ] ] ] ] ] ] ] ] ] ] ] ] ] ] ] ] ] ] ] ] ] ] ] ] ] ] ] B.C.D.E.T ] ] ] ] ] ] q.Y Y Y Y Y       ",
"      F.Y Y Y Y Y A.] ] ] ] ] ] ] ] ] ] ] ] ] ] ] ] ] ] ] ] ] ] ] ] ] ] ] ] ] ] ] ] ] ] C m G.] ] ] ] ] ] ] ] H.Z Y Y Y Y I.    ",
"      Z Y Y Y Y Z J.] ] ] ] ] ] ] ] ] ] ] ] ] ] ] ] ] ] ] ] ] ] ] ] ] ] ] ] ] ] ] ] ] ] ] ] ] ] ] ] ] ] ] ] ] ,.A.Y Y Y Y K.    ",
"      Y Y Y Y Y Z L.] ] ] ] ] ] ] ] ] ] ] ] ] ] ] ] ] ] ] ] ] ] ] ] ] ] ] ] ] ] ] ] ] ] ] ] ] ] ] ] ] ] ] ] ] ] ` Y Y Y Y :.    ",
"      Y Y Y Y Y Z ] ] ] ] ] ] ] ] ] ] ] ] ] ] ] ] ] ] ] ] M.N.] O.] P.] ] ] ] ] ] ] ] ] ] ] ] ] ] ] ] ] ] ] ] ] [.Y Y Y Y Y     ",
"      Y Y Y Y Y Q.] ] ] ] ] ] ] ] ] ] ] ] ] ] ] ] ] ] ] R.S.T.U.V.W.X.Y.] ] Z.`.] ] ] ] ] ] ] ] ] ] ] ] ] ] ] ] _.Y Y Y Y Y     ",
"     +Y Y Y Y Y A.] ] ] ] ] ] ] ] ] ] ] ] ] ] ] ] ] ] .+X.] ++@+T.] #+$+%+&+*+=+] ] ] ] ] ] ] ] ] ] ] ] ] ] ] ] L.Z Y Y Y Y     ",
"    -+Y Y Y Y Y ;+] ] ] ] ] ] ] ] ] ] ] ] ] ] ] ] ] ] >+] ] ] =+,+'+)+U.!+~+] ] ] ] ] ] ] ] ] ] ] ] ] ] ] ] ] ] H.{+Y Y Y Y     ",
"    ]+Y Y Y Y Y d.] ] ] ] ] ] ] ] ] ] ] ] ] ] ] ] O.] ] ] V.`.^+/+(+S.T.] ] O.] ] ] ] ] ] ] ] ] ] ] ] ] ] ] ] ] H.!.Y Y Y Y     ",
"    W Y Y Y Y Y d.] ] ] ] ] ] ] ] ] ] ] ] ] ] ] ] ] ] _+=+:+<+[+}+|+_+1+2+] 3+4+] ] ] ] ] ] ] ] ] ] ] ] ] ] ] ] H.!.Y Y Y Y     ",
"      Y Y Y Y Y A.] ] ] ] ] ] ] ] ] ] ] ] ] ] ] ] ] ] 5+6+] ] 7+7+`.8+9+%+0+'+a+] ] ] ] ] ] ] ] ] ] ] ] ] ] ] ] L.Z Y Y Y Y     ",
"      Y Y Y Y Y '.] ] ] ] ] ] ] ] ] ] ] ] ] ] ] ] O.] ] ] ] O.] b+N.] ] c+`.] ] ] ] ] ] ] ] ] ] ] ] ] ] ] ] ] ] L.Y Y Y Y Y     ",
"      Y Y Y Y Y Z ] ] ] ] ] ] ] ] ] ] ] ] ] ] ] ] ] ] ] ] ] ] O.] ] ] ] ] ] ] ] ] ] ] ] ] ] ] ] ] ] ] ] ] ] ] ] d+Y Y Y Y :.    ",
"      Z Y Y Y Y Y H.] ] ] ] ] ] ] ] ] ] ] ] ] ] ] ] ] ] ] ] ] ] ] ] ] ] ] ] ] ] ] ] ] ] ] ] ] ] ] ] ] ] ] ] ] ] J.Y Y Y Y e+    ",
"      f+Y Y Y Y Z q.] ] ] ] ] ] ] ] ] ] ] ] ] ] ] O.] ] ] ] O.] ] ] ] ] ] ] ] ] ] ] ] ] ] ] ] ] ] ] ] ] ] ] ] ,.d.Y Y Y Y -+    ",
"      -+Y Y Y Y Y ;+] ] ] ] ] ] ] ] ] ] ] ] ] ] ] ] O.] ] ] ] ] ] ] ] ] ] ] ] ] ] ] ] ] ] ] ] ] ] ] ] ] ] ] ] H.!.Y Y Y Y       ",
"        Y Y Y Y Y {+] ] ] ] ] ] ] ] ] ] ] ] ] ] ] O.h q ] ] ] ] ] ] ] O 0.] ] ] ] ] ] ] ] ] ] ] ] ] ] ] ] ] ] d+Y Y Y Y Z       ",
"        Z Y Y Y Y Y [.] ] ] ] ] ] ] ] ] ] ] ] ] C i g+h+i+] ] ] ] ] ] j+k+] ] ] ] ] ] ] ] ] ] ] ] ] ] ] ] ] ,.d.Y Y Y Y l+      ",
"        m+Y Y Y Y Y '.] ] ] ] ] ] ] ] ] ] ] ] ] z . n+o+1 d p+q+r+/ 0 s+x ] t+B p+} ] ] ] ] ] ] ] ] ] ] ] ] L.Z Y Y Y Y         ",
"          Y Y Y Y Y Y _.] ] ] ] ] ] ] ] ] ] ] ] |.< ] u+v+= w+x+= > -.c.C ] c.y+z+x+d ] ] ] ] ] ] ] ] ] ] ,.A+Y Y Y Y Z         ",
"          e+Y Y Y Y Y '.] ] ] ] ] ] ] ] ] ] ] 0.. B+] ] N . R #.. (.C+. ] ] . 5.~ . t+] ] ] ] ] ] ] ] ] ] _.Z Y Y Y Y D+        ",
"            Y Y Y Y Y Y [.] ] ] ] ] ] ] ] ] ] E+. i+] m x+8 ] F+. ] G+H+I+z.. J+K+. h ] ] ] ] ] ] ] ] ] ,.;+Y Y Y Y Z           ",
"            L+Y Y Y Y Y {+H.] ] ] ] ] ] ] ] ] r+8 M+r +.x+8 N N+H+] f O+1 P+. O.% . ] ] ] ] ] ] ] ] ] ] q.Y Y Y Y Y Q+          ",
"              . . . . . . R+5 ] ] ] ] ] ] ] ] ] S+T+w U+O.V+, a q ] W+b X+a > ] Y+o+] ] ] ] ] ] ] ] ] *.7 . . . . .             ",
"                . . . . . . o.Z+] ] ] ] ] ] ] ] ] ] ] ] ] ] ] ] ] ] ] ] ] ] ] ] ] ] ] ] ] ] ] ] ] ] (.C.. . . . .               ",
"                . . . . . . . u.S ] ] ] ] ] ] ] ] ] ] ] ] ] ] ] ] ] ] ] ] ] ] ] ] ] ] ] ] ] ] ] ] `+o+. . . . .                 ",
"                  . . . . . . . y.h ] ] ] ] ] ] ] ] ] ] ] ] ] ] ] ] ] ] ] ] ] ] ] ] ] ] ] ] ] ] I+R+. + . . . .                 ",
"                    . . . . . . .  @0 ] ] ] ] ] ] ] ] ] ] ] ] ] ] ] ] ] ] ] ] ] ] ] ] ] ] ] B r b . + . . . .                   ",
"                      . . . . . . . C.*.5 ] ] ] ] ] ] ] ] ] ] ] ] ] ] ] ] ] ] ] ] ] ] ] ] t+v.8 . . . . . .                     ",
"                        . . . . . . . @ .@+@S ] ] ] ] ] ] ] ] ] ] ] ] ] ] ] ] ] ] ] ] x i @@. . . . . . .                       ",
"                          . . . . . . . . n u.#@0.p ] ] ] ] ] ] ] ] ] ] ] ] ] ] Z+t+ .7.. . . . . . . .                         ",
"                            . . . . . . . . . $@%@[ &@t q d ^ ] ] ] ] C r+0./ *@=@x+. . . . . . . . .                           ",
"                                . . . . . . . . . . ;._ /.B+-@;@i+m i >@t.i.-.. . . . . . . . . .                               ",
"                                  . . . . . . . . . . . . . . . . . . . . . . . . . . . . . . .                                 ",
"                                      . . . . . . . . . . . . . . . . . . . . . . . . . . .                                     ",
"                                          . . . . . . . . . . . . . . . . . . . . . . .                                         ",
"                                                . . . . . . . . . . . . . . . . .                                               ",
"                                                          . . . . . . .                                                         ",
"                                                                                                                                ",
"                                                                                                                                "};
