/* XPM */
static char * bitcoin16_xpm[] = {
"16 16 83 1",
" 	c None",
".	c #2896F3",
"+	c #56AAF1",
"@	c #92C4EF",
"#	c #A2CBEE",
"$	c #93C5EF",
"%	c #64B0F0",
"&	c #2896F2",
"*	c #399DF2",
"=	c #D1E0EC",
"-	c #ECECEC",
";	c #DFE6EC",
">	c #4AA5F1",
",	c #CAE4FB",
"'	c #CCE5F9",
")	c #B9D5ED",
"!	c #C3DAED",
"~	c #E0E6EC",
"{	c #D1E6F7",
"]	c #C5E3FA",
"^	c #FEFEFE",
"/	c #FFFFFF",
"(	c #EFEFEF",
"_	c #A4CCEE",
":	c #8DC2EF",
"<	c #8BC1EF",
"[	c #A1CBEE",
"}	c #69B2F0",
"|	c #77B9F0",
"1	c #78B9F0",
"2	c #FBFBFB",
"3	c #D3E1EC",
"4	c #BFD8ED",
"5	c #C4DAED",
"6	c #C7DBED",
"7	c #C1D9ED",
"8	c #D8E3EC",
"9	c #99C7EE",
"0	c #F7F7F7",
"a	c #E7F3FD",
"b	c #E3F1FD",
"c	c #F5F5F5",
"d	c #E5E5E5",
"e	c #E3E3E3",
"f	c #C5C6C6",
"g	c #F3F3F3",
"h	c #F1F8FE",
"i	c #E4F1FD",
"j	c #F4F4F4",
"k	c #EAEAEA",
"l	c #C1C2C3",
"m	c #BCBDBD",
"n	c #F1F1F1",
"o	c #C7C8C8",
"p	c #E8F4FD",
"q	c #FAFAFA",
"r	c #DEE5EC",
"s	c #D6E2EC",
"t	c #F6F6F6",
"u	c #E4F1FC",
"v	c #FCFDFE",
"w	c #EDEEEE",
"x	c #B3D3EE",
"y	c #A6CDEE",
"z	c #8FC3EF",
"A	c #A5CCEE",
"B	c #90C3EF",
"C	c #D7E2EC",
"D	c #F3F8FE",
"E	c #3C9EF2",
"F	c #DBE4EC",
"G	c #AACFEE",
"H	c #B8D5ED",
"I	c #B4D3ED",
"J	c #BBD6ED",
"K	c #E5E8EC",
"L	c #53A9F1",
"M	c #41A1F2",
"N	c #E8EAEC",
"O	c #95C5EF",
"P	c #9DC9EE",
"Q	c #97C6EF",
"R	c #75B8F0",
"                ",
"     ......     ",
"   ...+@#$%..   ",
"  .&*=-----;>.  ",
"  ,');!-~=---{] ",
" ^/(_:<[}|1[--/ ",
" /2-345678#9--0a",
"b/c----defd---gh",
"i/j----klm----nh",
" /c----ko-k---gp",
" ^q---r-s-----t ",
" uvw-xyzABC---D ",
"  .E-FGHIJK--L  ",
"   &Ms-----NL   ",
"     .%OPQR     ",
"                "};
