/* XPM */
static char * bitcoin32_xpm[] = {
"32 32 172 2",
"  	c None",
". 	c #2896F3",
"+ 	c #42A1F2",
"@ 	c #54A9F1",
"# 	c #59ABF1",
"$ 	c #49A4F1",
"% 	c #2A97F2",
"& 	c #67B1F0",
"* 	c #B8D5ED",
"= 	c #ECECEC",
"- 	c #CDDEED",
"; 	c #81BDEF",
"> 	c #2D98F2",
", 	c #5EADF1",
"' 	c #E0E6EC",
") 	c #85BFEF",
"! 	c #9DC9EE",
"~ 	c #D7E2EC",
"{ 	c #3099F2",
"] 	c #B3D3EE",
"^ 	c #319AF2",
"/ 	c #98C7EE",
"( 	c #EBEBEC",
"_ 	c #97C6EF",
": 	c #89C0EF",
"< 	c #A9CEEE",
"[ 	c #C7DCED",
"} 	c #7BBAF0",
"| 	c #E9EAEC",
"1 	c #E6E9EC",
"2 	c #AACFEE",
"3 	c #90C3EF",
"4 	c #D9E3EC",
"5 	c #E5E8EC",
"6 	c #2996F2",
"7 	c #FDFEFE",
"8 	c #FCFDFE",
"9 	c #F8F8F9",
"0 	c #E1E7EC",
"a 	c #6EB5F0",
"b 	c #CDDEEC",
"c 	c #83BEEF",
"d 	c #BBD6ED",
"e 	c #6CB4F0",
"f 	c #94C5EF",
"g 	c #85BEEF",
"h 	c #6DB4F0",
"i 	c #ACD0EE",
"j 	c #62AFF0",
"k 	c #90C3EE",
"l 	c #80BCEF",
"m 	c #BDD7ED",
"n 	c #A4CCEE",
"o 	c #F2F3F3",
"p 	c #E9F4FD",
"q 	c #F7FAFE",
"r 	c #FFFFFF",
"s 	c #EEEEEE",
"t 	c #C1D9ED",
"u 	c #8BC1EF",
"v 	c #92C4EF",
"w 	c #B0D1EE",
"x 	c #69B2F0",
"y 	c #A5CCEE",
"z 	c #5BACF1",
"A 	c #8CC2EF",
"B 	c #B2D2EE",
"C 	c #40A0F2",
"D 	c #B3D3ED",
"E 	c #FDFDFD",
"F 	c #FAFAFA",
"G 	c #B9D5ED",
"H 	c #BAD6ED",
"I 	c #A2CBEE",
"J 	c #88C0EF",
"K 	c #C5DBED",
"L 	c #71B6F0",
"M 	c #7DBBEF",
"N 	c #95C6EF",
"O 	c #E8EAEC",
"P 	c #86BFEF",
"Q 	c #7CBBEF",
"R 	c #79B9F0",
"S 	c #F3F3F3",
"T 	c #E3F1FD",
"U 	c #F2F2F2",
"V 	c #E5E9EC",
"W 	c #E2E7EC",
"X 	c #FEFEFE",
"Y 	c #F8FBFE",
"Z 	c #EEF6FD",
"` 	c #FCFCFC",
" .	c #F7FBFE",
"..	c #EAEAEA",
"+.	c #EBEBEB",
"@.	c #B6B8B8",
"#.	c #FBFBFB",
"$.	c #FBFDFE",
"%.	c #DDDEDE",
"&.	c #C7C8C9",
"*.	c #B9BABA",
"=.	c #B2B3B4",
"-.	c #969899",
";.	c #CECFCF",
">.	c #C3C4C4",
",.	c #DDDDDD",
"'.	c #F8F8F8",
").	c #E8E8E8",
"!.	c #D5D6D6",
"~.	c #B1B2B3",
"{.	c #A9ABAB",
"].	c #D2D2D3",
"^.	c #E9E9E9",
"/.	c #F7F7F7",
"(.	c #C0C0C1",
"_.	c #C9CACA",
":.	c #989A9B",
"<.	c #B1B2B2",
"[.	c #BABBBC",
"}.	c #CCCCCD",
"|.	c #D5D5D5",
"1.	c #EFF7FD",
"2.	c #AFB1B1",
"3.	c #F1F1F1",
"4.	c #EAEBEC",
"5.	c #FAFCFE",
"6.	c #F9F9F9",
"7.	c #E7E9EC",
"8.	c #C4DAED",
"9.	c #D3E1EC",
"0.	c #D6E2EC",
"a.	c #E6F3FD",
"b.	c #F9FCFE",
"c.	c #8AC1EF",
"d.	c #87BFEF",
"e.	c #99C7EE",
"f.	c #B6D4ED",
"g.	c #B7D5ED",
"h.	c #DBE4EC",
"i.	c #73B7F0",
"j.	c #D4E1EC",
"k.	c #A7CDEE",
"l.	c #5DADF1",
"m.	c #8EC3EF",
"n.	c #A6CDEE",
"o.	c #5FAEF1",
"p.	c #9AC8EE",
"q.	c #F6FAFE",
"r.	c #DFEFFC",
"s.	c #E4F1FD",
"t.	c #E9EDF1",
"u.	c #78B9F0",
"v.	c #72B6F0",
"w.	c #C8DCED",
"x.	c #E4F0FC",
"y.	c #E7F3FD",
"z.	c #D1E0EC",
"A.	c #389DF2",
"B.	c #379CF2",
"C.	c #66B1F0",
"D.	c #A3CCEE",
"E.	c #2B97F2",
"F.	c #2E98F2",
"G.	c #6AB3F0",
"H.	c #E4E8EC",
"I.	c #399DF2",
"J.	c #369CF2",
"K.	c #44A2F1",
"L.	c #4DA6F1",
"M.	c #4FA7F1",
"N.	c #47A3F1",
"O.	c #3B9EF2",
"                                                                ",
"                              . . .                             ",
"                      . . . . . . . . . . .                     ",
"                  . . . . . + @ # $ % . . . . .                 ",
"              . . . . & * = = = = = = - ; > . . .               ",
"            . . . , ' = = = = = = = = = = = ) . . .             ",
"          . . . ! = = = = = = = = = = = = = = ~ { . .           ",
"        . . . ] = = = = = = = = = = = = = = = = = ^ . .         ",
"        . . / ( _ : < = [ } | = 1 2 3 4 = ( = = = 5 6 . .       ",
"      7 8 9 = = 0 a b c d e ( f g h i j k l m n = = o 8 8 p     ",
"    q r r s = ( t u & v w x y , ; z A j B C D } = = = E r r     ",
"    r r F = = ( G H I J K L H M N _ O P P Q R / = = = S r r T   ",
"    r r U = = = = = = = = = = = = = = = V y v W = = = = X r Y   ",
"  Z r r = = = = = = = = = = = = = = = = = = = = = = = = ` r X   ",
"   .r X = = = = = = = = = = ..+.= @.= = = = = = = = = = #.r r   ",
"  $.r ` = = = = = = = = = %.&.*.=.-.;.>.,.= = = = = = = '.r r   ",
"  $.r ` = = = = = = = = = ).= !.~.{.].^.= = = = = = = = /.r r   ",
"  Y r E = = = = = = = = = %.(._.:.<.[.}.|.= = = = = = = F r r   ",
"  1.r r = = = = = = = = = = = = 2.= ^.+.= = = = = = = = ` r X   ",
"    r r 3.= = = = = = = 4.( = +.( O = = = = = = = = = = X r 5.  ",
"    r r 6.= = = = = = 7.8.9.| O 0.] = O ( = = = = = = 3.r r a.  ",
"    b.r r = = = = = | n c.d.] * e.f.] g.h.= = = = = = ` r r     ",
"      r r 6.= = = = O i.j.k.J l.m.n.o.p.< = = = = = 3.r r q.    ",
"      r.s.s.t.= = = | ! } L u.u m.v.L n w.= = = = = x.s.y.      ",
"        . . . z.= = = = = = = = = = = = = = = = = A.. .         ",
"          . . . H = = = = = = = = = = = = = = = B.. .           ",
"            . . . C.= = = = = = = = = = = = D.E.. . .           ",
"              . . . F.G.H.= = = = = = = / I.. . .               ",
"                . . . . . J.K.L.M.N.O.. . . . .                 ",
"                    . . . . . . . . . . . .                     ",
"                            . . . . .                           ",
"                                                                "};
